<svg xmlns="http://www.w3.org/2000/svg" viewBox="0 0 314.95 315.03"><defs><style>.cls-1{fill:#606060;}.cls-2{fill:#303030;}.cls-3{fill:#191919;}.cls-4{fill:none;stroke:#191919;stroke-miterlimit:10;stroke-width:0.5px;}</style></defs><g id="Layer_2" data-name="Layer 2"><g id="Layer_1-2" data-name="Layer 1"><g id="Layer_2-2" data-name="Layer 2"><g id="Layer_1-2-2" data-name="Layer 1-2"><path d="M165.94,315H148.87c-.55-.13-1.11-.28-1.67-.37-8.71-1.32-17.55-2-26.1-4C37.77,291.19-14.89,207.17,3.75,123.73A157.42,157.42,0,0,1,185.64,2.56C254.82,15,307.77,72.43,314.21,142.45c3.4,37-4.87,71.27-25.58,102.11-26,38.68-62.34,61.49-108.39,68.78C175.51,314.09,170.71,314.48,165.94,315Zm-61.56-157.8c-.11,29,23.91,53.06,53,53.16a53.36,53.36,0,1,0-53-54.55c0,.46,0,.92,0,1.39Z"/><path class="cls-1" d="M104.38,157.51a53.1,53.1,0,0,1,106.2-.94c0,.46,0,.92,0,1.39-.16,28.95-24.23,52.8-53.2,52.7S104.27,186.48,104.38,157.51Zm53.47,3.37a2.66,2.66,0,0,0,2.53-2.69,3,3,0,0,0-2.7-3.17h-.15a2.71,2.71,0,0,0-2.85,2.56v.12a3.13,3.13,0,0,0,3.06,3.18Z"/><path class="cls-2" d="M144.9,169V139.79c0-.58.13-.72.78-.86l20.65-4.22,6.73-1.39a1.63,1.63,0,0,1,.76,0c.16,0,.3.21.39.35s0,.23,0,.35v31.66a5.79,5.79,0,0,1-1.58,4,11.77,11.77,0,0,1-7.08,3.73,6.81,6.81,0,0,1-4.6-.67,3.25,3.25,0,0,1-1.74-2.58,4.69,4.69,0,0,1,1-3.35,11.42,11.42,0,0,1,8-4.41,6.49,6.49,0,0,1,4.29.78h.13v-18l-1.9.37-24,4.89c-.32.06-.41.18-.41.47,0,6.63-.09,13.27.05,19.9.07,3.13-1.55,5.2-4.27,6.83a11.5,11.5,0,0,1-4.17,1.55,7,7,0,0,1-5.18-.84,3.14,3.14,0,0,1-1.41-2.45,5.69,5.69,0,0,1,2.24-4.6,11.4,11.4,0,0,1,6.62-3.06A6.78,6.78,0,0,1,144.9,169Zm27.84-31.9h-.29l-25.72,5.23c-.26.06-.35.14-.35.38v4l2.83-.58,23.13-4.73c.27,0,.37-.14.37-.4v-3.55Z"/><path class="cls-2" d="M201.36,157.53a43.84,43.84,0,1,1-43.84-43.84h0a43.82,43.82,0,0,1,43.84,43.82ZM157.52,90A67.49,67.49,0,1,0,225,157.53,67.49,67.49,0,0,0,157.52,90Z"/><path class="cls-3" d="M220.72,157.53a63.2,63.2,0,1,1-63.2-63.2h0a63.18,63.18,0,0,1,63.2,63.18ZM157.52,90A67.49,67.49,0,1,0,225,157.53,67.49,67.49,0,0,0,157.52,90Z"/><circle class="cls-4" cx="157.52" cy="157.95" r="153.15"/><circle class="cls-4" cx="157.52" cy="157.95" r="147.26"/><circle class="cls-4" cx="157.52" cy="157.95" r="141.37"/><circle class="cls-4" cx="157.52" cy="157.95" r="135.48"/><circle class="cls-4" cx="157.52" cy="157.95" r="129.59"/><circle class="cls-4" cx="157.52" cy="157.95" r="123.7"/><circle class="cls-4" cx="157.52" cy="157.95" r="117.81"/><circle class="cls-4" cx="157.52" cy="157.95" r="111.92"/><circle class="cls-4" cx="157.52" cy="157.95" r="106.03"/><circle class="cls-4" cx="157.52" cy="157.95" r="100.14"/><circle class="cls-4" cx="157.52" cy="157.95" r="94.25"/><circle class="cls-4" cx="157.52" cy="157.95" r="88.36"/><circle class="cls-4" cx="157.52" cy="157.95" r="82.47"/><circle class="cls-4" cx="157.52" cy="157.95" r="76.58"/></g></g></g></g></svg>